<?xml version="1.0" encoding="UTF-8"?>
<svg id="Layer_1" data-name="Layer 1" xmlns="http://www.w3.org/2000/svg" viewBox="0 0 497.31 77.28">
  <defs>
    <style>
      .cls-1 {
        fill: #63dcff;
      }

      .cls-2 {
        fill: #0d68be;
      }

      .cls-3 {
        fill: #c7f464;
      }
    </style>
  </defs>
  <g>
    <path class="cls-2" d="m205.77,59.56c-10.89,0-19.76-8.86-19.76-19.76s8.86-19.76,19.76-19.76,19.76,8.86,19.76,19.76-8.86,19.76-19.76,19.76Zm0-38.77c-10.48,0-19.01,8.53-19.01,19.01s8.53,19.01,19.01,19.01,19.01-8.53,19.01-19.01-8.53-19.01-19.01-19.01Z"/>
    <path class="cls-2" d="m187.28,34.33c-.07,0-.13-.02-.19-.05-.18-.11-.23-.34-.13-.51.18-.3,4.65-7.47,18.81-7.47s18.62,7.17,18.81,7.47c.11.18.05.41-.13.51-.18.11-.41.05-.51-.13-.04-.07-4.46-7.11-18.16-7.11s-18.12,7.04-18.16,7.11c-.07.12-.19.18-.32.18Z"/>
    <path class="cls-2" d="m205.77,42.6c-.13,0-.25-.02-.37-.04v9.99c.13,0,.24.01.37.01s.25-.01.37-.01v-9.99c-.12.02-.25.04-.37.04Z"/>
    <path class="cls-2" d="m206.14,37.03v-16.62c0-.21-.17-.38-.37-.38s-.37.17-.37.38v16.62c.12-.02.25-.04.37-.04s.25.02.37.04Z"/>
    <path class="cls-2" d="m205.39,53.31v5.88c0,.21.17.38.37.38s.37-.17.37-.38v-5.88c-.13,0-.25,0-.37,0s-.25,0-.37,0Z"/>
    <path class="cls-2" d="m225.15,39.42h-5.88c0,.13,0,.25,0,.38s0,.25,0,.38h5.88c.21,0,.37-.17.37-.38s-.17-.38-.37-.38Z"/>
    <path class="cls-2" d="m208.53,40.17h9.99c0-.13.01-.24.01-.38s-.01-.25-.01-.38h-9.99c.02.12.04.25.04.38s-.02.25-.04.38Z"/>
    <path class="cls-2" d="m195.39,40.17h7.61c-.02-.12-.04-.25-.04-.38s.02-.25.04-.38h-7.61c.02.12.04.25.04.38s-.02.25-.04.38Z"/>
    <path class="cls-2" d="m189.87,39.42h-3.48c-.21,0-.37.17-.37.38s.17.38.37.38h3.48c-.02-.12-.04-.25-.04-.38s.02-.25.04-.38Z"/>
    <path class="cls-2" d="m193.12,37.05c.86-11.58,6.93-15.37,7-15.41.18-.11.24-.34.13-.51-.11-.18-.34-.24-.51-.13-.28.17-6.52,4.02-7.37,16.03.09,0,.18-.03.27-.03.17,0,.33.02.49.05Z"/>
    <path class="cls-2" d="m192.63,42.6c-.09,0-.18-.02-.27-.03.22,3.07.78,5.62,1.52,7.7.31.14.65.27.99.41-.84-2.13-1.5-4.82-1.75-8.13-.16.03-.32.05-.49.05Z"/>
    <path class="cls-3" d="m195.39,39.42c-.16-1.21-1.09-2.17-2.28-2.38-.16-.03-.32-.05-.49-.05-.09,0-.18.02-.27.03-1.29.13-2.32,1.12-2.49,2.4-.02.12-.04.25-.04.38s.02.25.04.38c.17,1.28,1.2,2.27,2.5,2.4.09,0,.18.03.27.03.17,0,.33-.02.49-.05,1.19-.21,2.11-1.17,2.27-2.38.02-.12.04-.25.04-.38s-.02-.25-.04-.38Z"/>
    <path class="cls-2" d="m199.73,58.61c.06.04.13.05.19.05.13,0,.25-.07.32-.18.11-.18.05-.41-.13-.51-.04-.03-2.77-1.71-4.83-6.28-.35-.12-.69-.25-1.01-.38,2.15,5.26,5.26,7.19,5.46,7.31Z"/>
    <path class="cls-2" d="m217.59,47.75c.26.04.52.11.75.21.55-2.18.9-4.76.93-7.78h-.76c-.03,2.95-.39,5.45-.93,7.57Z"/>
    <path class="cls-2" d="m211.81,20.99c-.18-.11-.41-.05-.51.13-.11.18-.05.41.13.51.07.04,6.97,4.39,7.1,17.79h.76c-.13-13.86-7.16-18.25-7.47-18.43Z"/>
    <path class="cls-2" d="m211.42,57.96c-.18.11-.23.34-.13.51.07.12.19.18.32.18.07,0,.13-.02.19-.05.17-.1,2.55-1.59,4.58-5.43-.26-.08-.5-.18-.72-.33-1.96,3.67-4.21,5.09-4.25,5.11Z"/>
    <path class="cls-2" d="m219.28,39.42h-.76c0,.13.01.24.01.38s-.01.25-.01.38h.76c0-.13,0-.25,0-.38s0-.25,0-.38Z"/>
    <path class="cls-2" d="m224.58,45.84c.11-.18.05-.41-.13-.51-.18-.11-.41-.05-.51.13-.02.04-1.21,1.94-4.25,3.77.12.24.22.49.27.76,3.26-1.92,4.53-3.98,4.63-4.14Z"/>
    <path class="cls-2" d="m187.61,45.46c-.11-.18-.34-.23-.51-.13-.18.11-.24.34-.13.51.12.2,2.04,3.32,7.3,5.46-.13-.33-.26-.67-.39-1.02-4.55-2.06-6.25-4.78-6.27-4.82Z"/>
    <path class="cls-2" d="m206.14,52.55v.76c3.5-.03,6.39-.5,8.77-1.19-.15-.21-.26-.45-.35-.7-2.29.66-5.07,1.1-8.42,1.14Z"/>
    <path class="cls-2" d="m194.87,50.69c.13.34.27.69.41,1,2.6.92,5.92,1.58,10.11,1.62v-.76c-4.46-.04-7.9-.83-10.52-1.86Z"/>
    <path class="cls-2" d="m205.77,52.56c-.13,0-.25-.01-.37-.01v.76c.13,0,.25,0,.37,0s.25,0,.37,0v-.76c-.13,0-.24.01-.37.01Z"/>
    <path class="cls-2" d="m193.88,50.28c.13.35.25.7.39,1.02.32.13.66.26,1.01.38-.14-.31-.28-.66-.41-1-.34-.13-.68-.27-.99-.41Z"/>
    <path class="cls-1" d="m208.53,39.42c-.17-1.24-1.15-2.22-2.39-2.39-.12-.02-.25-.04-.37-.04s-.25.02-.37.04c-1.24.17-2.22,1.15-2.39,2.39-.02.12-.04.25-.04.38s.02.25.04.38c.17,1.24,1.15,2.22,2.39,2.39.12.02.25.04.37.04s.25-.02.37-.04c1.24-.17,2.22-1.15,2.39-2.39.02-.12.04-.25.04-.38s-.02-.25-.04-.38Z"/>
    <path class="cls-1" d="m219.95,49.98c-.05-.27-.15-.52-.27-.76-.29-.56-.75-1.01-1.33-1.27-.24-.11-.49-.17-.75-.21-.13-.02-.26-.04-.39-.04-1.55,0-2.8,1.26-2.8,2.8,0,.32.06.62.16.9.09.25.2.49.35.7.2.29.46.54.76.73.22.14.46.25.72.33.26.08.53.13.81.13,1.54,0,2.8-1.26,2.8-2.8,0-.18-.02-.36-.05-.53Z"/>
    <g>
      <path class="cls-2" d="m206.49,66.29c-.2,0-.37-.16-.37-.37,0-.21.16-.38.37-.38.33,0,.66-.02.98-.04.21-.02.39.14.4.35.01.21-.14.38-.35.4-.34.02-.67.04-1.01.05h0Zm-3-.09s-.02,0-.03,0c-.34-.03-.67-.06-1.01-.11-.21-.03-.35-.21-.33-.42.02-.21.21-.36.42-.33.32.04.65.08.98.1.21.02.36.2.34.41-.02.2-.18.34-.37.34Zm6.97-.32c-.18,0-.34-.13-.37-.31-.04-.2.1-.4.3-.44.32-.06.65-.12.97-.19.2-.04.4.08.45.28.04.2-.08.4-.28.45-.33.07-.66.14-.99.2-.02,0-.04,0-.07,0Zm-10.91-.32s-.06,0-.09-.01c-.33-.08-.66-.17-.98-.26-.2-.06-.31-.26-.26-.46.06-.2.26-.31.46-.26.31.09.63.17.95.25.2.05.32.25.28.45-.04.17-.19.29-.36.29Zm14.77-.69c-.16,0-.3-.1-.35-.25-.07-.2.04-.41.23-.48.31-.11.62-.22.93-.34.19-.08.41.02.49.21.08.19-.02.41-.21.49-.31.12-.63.24-.95.35-.04.01-.08.02-.12.02Zm-18.57-.55s-.1,0-.14-.03c-.31-.13-.62-.27-.93-.41-.19-.09-.27-.31-.18-.5.09-.19.31-.27.5-.18.3.14.6.27.9.4.19.08.28.3.2.49-.06.14-.2.23-.35.23Zm22.24-1.04c-.13,0-.26-.07-.33-.2-.1-.18-.03-.41.16-.51.29-.15.58-.31.86-.48.18-.1.41-.04.51.14.1.18.04.41-.14.51-.29.17-.59.33-.89.49-.06.03-.12.04-.18.04Zm-25.8-.77c-.07,0-.13-.02-.19-.05-.29-.18-.58-.36-.86-.54-.17-.11-.22-.35-.1-.52.11-.17.35-.22.52-.11.27.18.55.36.83.53.18.11.23.34.12.52-.07.12-.19.18-.32.18Zm29.18-1.36c-.11,0-.23-.05-.3-.15-.12-.17-.09-.4.08-.53.26-.2.52-.4.78-.6.16-.13.4-.11.53.06.13.16.1.4-.06.53-.26.21-.53.42-.8.62-.07.05-.15.07-.22.07Zm-32.42-.97c-.09,0-.17-.03-.24-.09-.26-.22-.51-.44-.76-.67-.15-.14-.16-.38-.02-.53.14-.15.38-.16.53-.02.24.22.49.44.74.65.16.13.18.37.04.53-.07.09-.18.13-.29.13Zm35.43-1.65c-.1,0-.19-.04-.26-.11-.15-.15-.15-.38,0-.53.23-.23.46-.47.68-.71.14-.15.38-.16.53-.02.15.14.16.38.02.53-.23.25-.46.5-.7.74-.07.07-.17.11-.27.11Zm-38.28-1.15c-.1,0-.21-.04-.28-.13-.22-.25-.44-.51-.65-.78-.13-.16-.11-.4.05-.53.16-.13.4-.11.53.05.21.25.42.51.63.75.14.16.12.39-.04.53-.07.06-.16.09-.25.09Zm40.86-1.9c-.08,0-.15-.02-.22-.07-.17-.12-.21-.36-.08-.52.19-.27.38-.54.56-.81.11-.17.35-.22.52-.1.17.11.22.35.1.52-.19.28-.38.56-.58.83-.07.1-.19.16-.3.16Zm-43.25-1.29c-.12,0-.25-.06-.32-.17-.18-.28-.36-.57-.53-.87-.1-.18-.04-.41.13-.51.18-.1.41-.04.51.14.17.28.34.56.51.84.11.17.06.41-.12.52-.06.04-.13.06-.2.06Zm45.34-2.11c-.06,0-.12-.01-.17-.04-.18-.09-.26-.32-.16-.5.15-.29.29-.59.43-.89.09-.19.31-.27.5-.18.19.09.27.31.18.5-.14.31-.29.61-.45.91-.07.13-.2.2-.33.2Zm-47.22-1.41c-.14,0-.28-.08-.34-.22-.14-.31-.26-.62-.39-.93-.08-.19.02-.41.21-.49.19-.08.41.02.49.21.12.31.25.61.38.91.08.19,0,.41-.19.49-.05.02-.1.03-.15.03Zm48.76-2.28s-.08,0-.12-.02c-.2-.07-.3-.28-.24-.47.1-.31.2-.62.29-.94.06-.2.26-.31.46-.26.2.06.31.26.26.46-.09.33-.19.65-.3.97-.05.16-.2.26-.36.26Zm-50.08-1.49c-.17,0-.32-.11-.36-.28-.09-.33-.17-.65-.24-.98-.05-.2.08-.4.28-.45.2-.04.4.08.45.28.07.32.15.64.23.96.05.2-.07.41-.27.46-.03,0-.06.01-.1.01Zm51.03-2.39s-.04,0-.06,0c-.2-.03-.34-.23-.31-.43.05-.32.1-.65.14-.97.03-.21.21-.35.42-.33.21.03.35.21.33.42-.04.34-.09.67-.15,1-.03.18-.19.31-.37.31Zm-51.76-1.54c-.19,0-.35-.14-.37-.34-.04-.33-.06-.67-.09-1.01-.01-.21.14-.39.35-.4.2-.02.39.14.4.35.02.33.05.66.08.98.02.21-.13.39-.33.41-.01,0-.03,0-.04,0Zm52.11-2.44h0c-.21,0-.37-.17-.37-.38v-.33c0-.22,0-.44,0-.66,0-.21.16-.38.37-.38.25,0,.38.16.38.37,0,.22,0,.45,0,.67v.34c0,.2-.17.37-.38.37Zm-52.23-1.55h-.02c-.21,0-.37-.19-.36-.39.02-.34.04-.68.07-1.01.02-.21.2-.36.41-.34.21.02.36.2.34.41-.03.33-.05.65-.06.98,0,.2-.17.36-.37.36Zm51.98-2.43c-.18,0-.34-.14-.37-.32-.05-.33-.1-.65-.16-.97-.04-.2.1-.4.3-.44.2-.04.4.1.43.3.06.33.11.67.16,1,.03.21-.11.39-.32.42-.02,0-.04,0-.05,0Zm-51.49-1.53s-.05,0-.07,0c-.2-.04-.33-.24-.29-.44.07-.33.14-.66.22-.99.05-.2.26-.33.45-.28.2.05.33.25.28.45-.08.32-.15.64-.21.96-.04.18-.19.3-.37.3Zm50.63-2.37c-.16,0-.31-.1-.36-.27-.09-.31-.2-.63-.3-.94-.07-.2.04-.41.23-.48.2-.06.41.04.48.23.11.32.21.64.31.96.06.2-.05.41-.25.47-.04.01-.07.02-.11.02Zm-49.55-1.47s-.09,0-.13-.02c-.19-.07-.29-.29-.22-.48.12-.32.24-.63.37-.95.08-.19.3-.28.49-.2.19.08.28.3.2.49-.13.3-.25.61-.36.92-.06.15-.2.25-.35.25Zm1.67-3.64c-.06,0-.12-.01-.18-.05-.18-.1-.25-.33-.15-.51.16-.3.33-.59.51-.88.11-.18.34-.23.52-.12.18.11.23.34.13.52-.17.28-.33.56-.5.85-.07.12-.2.19-.33.19Zm2.2-3.33c-.08,0-.16-.03-.23-.08-.16-.13-.19-.36-.07-.53.21-.27.42-.53.64-.79.13-.16.37-.18.53-.05.16.13.18.37.05.53-.21.25-.42.51-.62.77-.07.1-.18.15-.3.15Zm2.68-2.96c-.1,0-.2-.04-.27-.12-.14-.15-.14-.39.01-.53.25-.23.5-.46.75-.68.15-.14.39-.12.53.04.14.16.12.39-.03.53-.25.22-.49.44-.73.66-.07.07-.17.1-.26.1Zm3.1-2.52c-.12,0-.24-.06-.31-.16-.12-.17-.08-.4.09-.52.28-.19.56-.38.84-.56.17-.11.41-.06.52.11.11.17.06.41-.11.52-.28.18-.55.36-.82.55-.06.04-.14.07-.21.07Zm3.44-2.02c-.14,0-.27-.08-.34-.21-.09-.19-.01-.41.17-.5.3-.15.61-.29.92-.43.19-.09.41,0,.49.19.08.19,0,.41-.19.49-.3.13-.6.27-.89.41-.05.03-.11.04-.16.04Zm3.71-1.47c-.16,0-.31-.1-.36-.26-.06-.2.05-.41.25-.47.32-.1.65-.19.97-.28.2-.05.41.07.46.26.05.2-.06.41-.26.46-.32.09-.63.18-.95.27-.04.01-.07.02-.11.02Zm3.9-.88c-.18,0-.34-.13-.37-.32-.03-.2.11-.39.32-.42.33-.05.67-.09,1-.13.2-.01.39.13.41.33.02.21-.13.39-.33.41-.33.04-.65.08-.98.12-.02,0-.04,0-.05,0Z"/>
      <path class="cls-2" d="m228.43,27.16c-.13,0-.26-.07-.33-.19-.16-.28-.33-.57-.51-.84-.11-.18-.06-.41.12-.52.18-.11.41-.06.52.12.18.29.35.58.52.87.1.18.04.41-.14.51-.06.03-.12.05-.19.05Zm-2.25-3.3c-.11,0-.22-.05-.29-.14-.21-.26-.42-.51-.63-.76-.14-.16-.12-.39.04-.53.16-.13.39-.12.53.04.22.26.44.51.65.78.13.16.1.4-.06.53-.07.06-.15.08-.23.08Zm-2.73-2.92c-.09,0-.18-.03-.25-.1-.24-.22-.49-.44-.74-.65-.16-.13-.18-.37-.04-.53.14-.16.37-.17.53-.04.26.22.51.44.76.67.15.14.16.38.02.53-.07.08-.17.12-.28.12Zm-3.14-2.47c-.07,0-.14-.02-.21-.06-.27-.18-.55-.36-.83-.53-.18-.11-.23-.34-.12-.52.11-.18.34-.23.52-.12.29.18.57.36.85.55.17.12.22.35.1.52-.07.11-.19.17-.31.17Zm-3.48-1.97c-.05,0-.11-.01-.16-.04-.3-.14-.6-.27-.9-.4-.19-.08-.28-.3-.2-.49.08-.19.3-.28.49-.2.31.13.62.27.93.41.19.09.27.31.18.5-.06.14-.2.22-.34.22Zm-3.74-1.41s-.07,0-.11-.02c-.31-.09-.63-.18-.95-.26-.2-.05-.32-.25-.27-.45.05-.2.26-.32.45-.27.33.08.66.17.98.27.2.06.31.27.25.46-.05.16-.2.27-.36.27Zm-3.91-.82s-.03,0-.05,0c-.32-.04-.65-.08-.98-.11-.21-.02-.36-.2-.34-.41.02-.21.19-.36.41-.34.34.03.67.07,1.01.11.21.03.35.21.32.42-.02.19-.19.33-.37.33Z"/>
    </g>
    <path class="cls-3" d="m205.77,10.87c-1.54,0-2.8,1.26-2.8,2.8s1.26,2.8,2.8,2.8,2.8-1.26,2.8-2.8-1.26-2.8-2.8-2.8Z"/>
    <path class="cls-1" d="m229.47,26.29c-1.54,0-2.8,1.26-2.8,2.8s1.26,2.8,2.8,2.8,2.8-1.26,2.8-2.8-1.26-2.8-2.8-2.8Z"/>
  </g>
  <g>
    <g>
      <rect class="cls-1" x="261.8" y="32.41" width="27.69" height="7.42" rx=".37" ry=".37"/>
      <rect class="cls-1" x="261.8" y="50.1" width="27.69" height="7.42" rx=".37" ry=".37"/>
      <rect class="cls-1" x="261.8" y="67.79" width="27.69" height="7.42" rx=".37" ry=".37"/>
      <rect class="cls-1" x="261.8" y="14.72" width="27.69" height="7.42" rx=".37" ry=".37"/>
      <rect class="cls-1" x="295.73" y="23.57" width="27.69" height="7.42" rx=".37" ry=".37"/>
      <rect class="cls-1" x="295.73" y="41.26" width="27.69" height="7.42" rx=".37" ry=".37"/>
      <rect class="cls-1" x="295.73" y="58.95" width="27.69" height="7.42" rx=".37" ry=".37"/>
    </g>
    <path class="cls-2" d="m291.19,77.28h-31.09c-.21,0-.38-.17-.38-.38V13.07c0-.21.17-.38.38-.38h31.09c.21,0,.37.17.37.38v63.84c0,.21-.17.38-.37.38Zm-30.71-.75h30.34V13.44h-30.34v63.09Z"/>
    <path class="cls-2" d="m289.12,30.99h-26.94c-.21,0-.37-.17-.37-.38v-6.67c0-.21.17-.38.37-.38h26.94c.21,0,.37.17.37.38v6.67c0,.21-.17.38-.37.38Zm-26.57-.75h26.19v-5.92h-26.19v5.92Z"/>
    <path class="cls-2" d="m289.12,48.68h-26.94c-.21,0-.37-.17-.37-.38v-6.67c0-.21.17-.38.37-.38h26.94c.21,0,.37.17.37.38v6.67c0,.21-.17.38-.37.38Zm-26.57-.75h26.19v-5.92h-26.19v5.92Z"/>
    <path class="cls-2" d="m289.12,66.37h-26.94c-.21,0-.37-.17-.37-.38v-6.67c0-.21.17-.38.37-.38h26.94c.21,0,.37.17.37.38v6.67c0,.21-.17.38-.37.38Zm-26.57-.75h26.19v-5.92h-26.19v5.92Z"/>
    <path class="cls-2" d="m325.12,77.28h-31.09c-.21,0-.37-.17-.37-.38V13.07c0-.21.17-.38.37-.38h31.09c.21,0,.37.17.37.38v63.84c0,.21-.17.38-.37.38Zm-30.71-.75h30.34V13.44h-30.34v63.09Z"/>
    <path class="cls-2" d="m323.05,39.83h-26.94c-.21,0-.37-.17-.37-.38v-6.67c0-.21.17-.38.37-.38h26.94c.21,0,.37.17.37.38v6.67c0,.21-.17.38-.37.38Zm-26.57-.75h26.19v-5.92h-26.19v5.92Z"/>
    <path class="cls-2" d="m323.05,57.52h-26.94c-.21,0-.37-.17-.37-.38v-6.67c0-.21.17-.38.37-.38h26.94c.21,0,.37.17.37.38v6.67c0,.21-.17.38-.37.38Zm-26.57-.75h26.19v-5.92h-26.19v5.92Z"/>
    <path class="cls-2" d="m323.05,75.21h-26.94c-.21,0-.37-.17-.37-.38v-6.67c0-.21.17-.38.37-.38h26.94c.21,0,.37.17.37.38v6.67c0,.21-.17.38-.37.38Zm-26.57-.75h26.19v-5.92h-26.19v5.92Z"/>
    <path class="cls-2" d="m323.05,22.14h-26.94c-.21,0-.37-.17-.37-.38v-6.67c0-.21.17-.38.37-.38h26.94c.21,0,.37.17.37.38v6.67c0,.21-.17.38-.37.38Zm-26.57-.75h26.19v-5.92h-26.19v5.92Z"/>
    <path class="cls-2" d="m294.03,77.28c-.21,0-.37-.17-.37-.38V13.07c0-.21.17-.38.37-.38h30.37l-1.55-2.2h-30.24c-.21,0-.37-.17-.37-.38s.17-.38.37-.38h30.44c.12,0,.24.06.31.16l2.07,2.95c.08.11.09.26.03.39-.06.12-.19.2-.33.2h-30.71v63.46c0,.21-.17.38-.37.38Z"/>
    <path class="cls-2" d="m291.19,77.28c-.21,0-.37-.17-.37-.38V13.44h-30.71c-.14,0-.27-.08-.33-.2-.06-.12-.05-.27.03-.39l2.07-2.95c.07-.1.18-.16.31-.16h30.44c.21,0,.37.17.37.38s-.17.38-.37.38h-30.24l-1.55,2.2h30.37c.21,0,.37.17.37.38v63.84c0,.21-.17.38-.37.38Z"/>
    <g>
      <g>
        <path class="cls-2" d="m297.95,18.81h-.67c-.21,0-.38-.17-.38-.38s.17-.38.38-.38h.67c.21,0,.37.17.37.38s-.17.38-.37.38Z"/>
        <path class="cls-2" d="m299.7,18.81h-.66c-.21,0-.37-.17-.37-.38s.17-.38.37-.38h.66c.21,0,.37.17.37.38s-.17.38-.37.38Z"/>
        <path class="cls-2" d="m301.45,18.81h-.66c-.21,0-.37-.17-.37-.38s.17-.38.37-.38h.66c.21,0,.37.17.37.38s-.17.38-.37.38Z"/>
        <path class="cls-2" d="m303.2,18.81h-.66c-.21,0-.37-.17-.37-.38s.17-.38.37-.38h.66c.21,0,.37.17.37.38s-.17.38-.37.38Z"/>
        <path class="cls-2" d="m321.86,18.81h-17.1c-.21,0-.37-.17-.37-.38s.17-.38.37-.38h17.1c.21,0,.37.17.37.38s-.17.38-.37.38Z"/>
      </g>
      <g>
        <path class="cls-2" d="m321.86,27.69h-.66c-.21,0-.37-.17-.37-.38s.17-.38.37-.38h.66c.21,0,.37.17.37.38s-.17.38-.37.38Z"/>
        <path class="cls-2" d="m320.11,27.69h-.66c-.21,0-.37-.17-.37-.38s.17-.38.37-.38h.66c.21,0,.37.17.37.38s-.17.38-.37.38Z"/>
        <path class="cls-2" d="m318.37,27.69h-.67c-.21,0-.37-.17-.37-.38s.17-.38.37-.38h.67c.21,0,.37.17.37.38s-.17.38-.37.38Z"/>
        <path class="cls-2" d="m316.62,27.69h-.66c-.21,0-.37-.17-.37-.38s.17-.38.37-.38h.66c.21,0,.37.17.37.38s-.17.38-.37.38Z"/>
        <path class="cls-2" d="m314.4,27.69h-17.1c-.21,0-.37-.17-.37-.38s.17-.38.37-.38h17.1c.21,0,.37.17.37.38s-.17.38-.37.38Z"/>
      </g>
      <g>
        <path class="cls-2" d="m297.96,36.48h-.66c-.21,0-.38-.17-.38-.38s.17-.38.38-.38h.66c.21,0,.37.17.37.38s-.17.38-.37.38Z"/>
        <path class="cls-2" d="m299.7,36.48h-.66c-.21,0-.38-.17-.38-.38s.17-.38.38-.38h.66c.21,0,.37.17.37.38s-.17.38-.37.38Z"/>
        <path class="cls-2" d="m301.45,36.48h-.66c-.21,0-.37-.17-.37-.38s.17-.38.37-.38h.66c.21,0,.37.17.37.38s-.17.38-.37.38Z"/>
        <path class="cls-2" d="m303.2,36.48h-.66c-.21,0-.37-.17-.37-.38s.17-.38.37-.38h.66c.21,0,.37.17.37.38s-.17.38-.37.38Z"/>
        <path class="cls-2" d="m321.86,36.48h-17.1c-.21,0-.37-.17-.37-.38s.17-.38.37-.38h17.1c.21,0,.37.17.37.38s-.17.38-.37.38Z"/>
      </g>
      <g>
        <path class="cls-2" d="m321.86,45.36h-.67c-.21,0-.37-.17-.37-.38s.17-.38.37-.38h.67c.21,0,.37.17.37.38s-.17.38-.37.38Z"/>
        <path class="cls-2" d="m320.11,45.36h-.66c-.21,0-.37-.17-.37-.38s.17-.38.37-.38h.66c.21,0,.37.17.37.38s-.17.38-.37.38Z"/>
        <path class="cls-2" d="m318.37,45.36h-.66c-.21,0-.37-.17-.37-.38s.17-.38.37-.38h.66c.21,0,.37.17.37.38s-.17.38-.37.38Z"/>
        <path class="cls-2" d="m316.62,45.36h-.66c-.21,0-.38-.17-.38-.38s.17-.38.38-.38h.66c.21,0,.37.17.37.38s-.17.38-.37.38Z"/>
        <path class="cls-2" d="m314.4,45.36h-17.1c-.21,0-.37-.17-.37-.38s.17-.38.37-.38h17.1c.21,0,.37.17.37.38s-.17.38-.37.38Z"/>
      </g>
      <g>
        <path class="cls-2" d="m297.96,54.15h-.66c-.21,0-.37-.17-.37-.38s.17-.38.37-.38h.66c.21,0,.37.17.37.38s-.17.38-.37.38Z"/>
        <path class="cls-2" d="m299.7,54.15h-.66c-.21,0-.38-.17-.38-.38s.17-.38.38-.38h.66c.21,0,.37.17.37.38s-.17.38-.37.38Z"/>
        <path class="cls-2" d="m301.45,54.15h-.66c-.21,0-.37-.17-.37-.38s.17-.38.37-.38h.66c.21,0,.37.17.37.38s-.17.38-.37.38Z"/>
        <path class="cls-2" d="m303.2,54.15h-.67c-.21,0-.37-.17-.37-.38s.17-.38.37-.38h.67c.21,0,.37.17.37.38s-.17.38-.37.38Z"/>
        <path class="cls-2" d="m321.86,54.15h-17.1c-.21,0-.37-.17-.37-.38s.17-.38.37-.38h17.1c.21,0,.37.17.37.38s-.17.38-.37.38Z"/>
      </g>
      <g>
        <path class="cls-2" d="m321.86,63.04h-.66c-.21,0-.37-.17-.37-.38s.17-.38.37-.38h.66c.21,0,.37.17.37.38s-.17.38-.37.38Z"/>
        <path class="cls-2" d="m320.12,63.04h-.66c-.21,0-.37-.17-.37-.38s.17-.38.37-.38h.66c.21,0,.37.17.37.38s-.17.38-.37.38Z"/>
        <path class="cls-2" d="m318.37,63.04h-.66c-.21,0-.38-.17-.38-.38s.17-.38.38-.38h.66c.21,0,.37.17.37.38s-.17.38-.37.38Z"/>
        <path class="cls-2" d="m316.62,63.04h-.66c-.21,0-.37-.17-.37-.38s.17-.38.37-.38h.66c.21,0,.37.17.37.38s-.17.38-.37.38Z"/>
        <path class="cls-2" d="m314.4,63.03h-17.1c-.21,0-.37-.17-.37-.38s.17-.38.37-.38h17.1c.21,0,.37.17.37.38s-.17.38-.37.38Z"/>
      </g>
      <g>
        <path class="cls-2" d="m297.96,71.82h-.66c-.21,0-.37-.17-.37-.38s.17-.38.37-.38h.66c.21,0,.37.17.37.38s-.17.38-.37.38Z"/>
        <path class="cls-2" d="m299.71,71.82h-.66c-.21,0-.37-.17-.37-.38s.17-.38.37-.38h.66c.21,0,.37.17.37.38s-.17.38-.37.38Z"/>
        <path class="cls-2" d="m301.45,71.82h-.66c-.21,0-.38-.17-.38-.38s.17-.38.38-.38h.66c.21,0,.37.17.37.38s-.17.38-.37.38Z"/>
        <path class="cls-2" d="m303.2,71.82h-.66c-.21,0-.37-.17-.37-.38s.17-.38.37-.38h.66c.21,0,.37.17.37.38s-.17.38-.37.38Z"/>
        <path class="cls-2" d="m321.86,71.82h-17.1c-.21,0-.37-.17-.37-.38s.17-.38.37-.38h17.1c.21,0,.37.17.37.38s-.17.38-.37.38Z"/>
      </g>
    </g>
    <g>
      <g>
        <path class="cls-2" d="m287.93,18.86h-.66c-.21,0-.38-.17-.38-.38s.17-.38.38-.38h.66c.21,0,.37.17.37.38s-.17.38-.37.38Z"/>
        <path class="cls-2" d="m286.19,18.86h-.67c-.21,0-.37-.17-.37-.38s.17-.38.37-.38h.67c.21,0,.37.17.37.38s-.17.38-.37.38Z"/>
        <path class="cls-2" d="m284.44,18.86h-.67c-.21,0-.37-.17-.37-.38s.17-.38.37-.38h.67c.21,0,.37.17.37.38s-.17.38-.37.38Z"/>
        <path class="cls-2" d="m282.69,18.86h-.66c-.21,0-.37-.17-.37-.38s.17-.38.37-.38h.66c.21,0,.37.17.37.38s-.17.38-.37.38Z"/>
        <path class="cls-2" d="m280.47,18.86h-17.1c-.21,0-.37-.17-.37-.38s.17-.38.37-.38h17.1c.21,0,.37.17.37.38s-.17.38-.37.38Z"/>
      </g>
      <g>
        <path class="cls-2" d="m264.03,27.74h-.67c-.21,0-.37-.17-.37-.38s.17-.38.37-.38h.67c.21,0,.37.17.37.38s-.17.38-.37.38Z"/>
        <path class="cls-2" d="m265.78,27.74h-.66c-.21,0-.37-.17-.37-.38s.17-.38.37-.38h.66c.21,0,.37.17.37.38s-.17.38-.37.38Z"/>
        <path class="cls-2" d="m267.52,27.74h-.66c-.21,0-.37-.17-.37-.38s.17-.38.37-.38h.66c.21,0,.37.17.37.38s-.17.38-.37.38Z"/>
        <path class="cls-2" d="m269.27,27.74h-.66c-.21,0-.37-.17-.37-.38s.17-.38.37-.38h.66c.21,0,.37.17.37.38s-.17.38-.37.38Z"/>
        <path class="cls-2" d="m287.93,27.74h-17.1c-.21,0-.37-.17-.37-.38s.17-.38.37-.38h17.1c.21,0,.37.17.37.38s-.17.38-.37.38Z"/>
      </g>
      <g>
        <path class="cls-2" d="m287.93,36.53h-.66c-.21,0-.38-.17-.38-.38s.17-.38.38-.38h.66c.21,0,.37.17.37.38s-.17.38-.37.38Z"/>
        <path class="cls-2" d="m286.19,36.53h-.66c-.21,0-.37-.17-.37-.38s.17-.38.37-.38h.66c.21,0,.37.17.37.38s-.17.38-.37.38Z"/>
        <path class="cls-2" d="m284.44,36.53h-.66c-.21,0-.37-.17-.37-.38s.17-.38.37-.38h.66c.21,0,.37.17.37.38s-.17.38-.37.38Z"/>
        <path class="cls-2" d="m282.69,36.53h-.67c-.21,0-.37-.17-.37-.38s.17-.38.37-.38h.67c.21,0,.37.17.37.38s-.17.38-.37.38Z"/>
        <path class="cls-2" d="m280.47,36.53h-17.1c-.21,0-.37-.17-.37-.38s.17-.38.37-.38h17.1c.21,0,.37.17.37.38s-.17.38-.37.38Z"/>
      </g>
      <g>
        <path class="cls-2" d="m264.03,45.41h-.66c-.21,0-.37-.17-.37-.38s.17-.38.37-.38h.66c.21,0,.37.17.37.38s-.17.38-.37.38Z"/>
        <path class="cls-2" d="m265.77,45.41h-.66c-.21,0-.37-.17-.37-.38s.17-.38.37-.38h.66c.21,0,.37.17.37.38s-.17.38-.37.38Z"/>
        <path class="cls-2" d="m267.52,45.41h-.66c-.21,0-.37-.17-.37-.38s.17-.38.37-.38h.66c.21,0,.37.17.37.38s-.17.38-.37.38Z"/>
        <path class="cls-2" d="m269.27,45.41h-.67c-.21,0-.38-.17-.38-.38s.17-.38.38-.38h.67c.21,0,.38.17.38.38s-.17.38-.38.38Z"/>
        <path class="cls-2" d="m287.93,45.41h-17.1c-.21,0-.37-.17-.37-.38s.17-.38.37-.38h17.1c.21,0,.37.17.37.38s-.17.38-.37.38Z"/>
      </g>
      <g>
        <path class="cls-2" d="m287.93,54.2h-.66c-.21,0-.37-.17-.37-.38s.17-.38.37-.38h.66c.21,0,.37.17.37.38s-.17.38-.37.38Z"/>
        <path class="cls-2" d="m286.18,54.2h-.66c-.21,0-.38-.17-.38-.38s.17-.38.38-.38h.66c.21,0,.37.17.37.38s-.17.38-.37.38Z"/>
        <path class="cls-2" d="m284.44,54.2h-.66c-.21,0-.37-.17-.37-.38s.17-.38.37-.38h.66c.21,0,.37.17.37.38s-.17.38-.37.38Z"/>
        <path class="cls-2" d="m282.69,54.2h-.66c-.21,0-.37-.17-.37-.38s.17-.38.37-.38h.66c.21,0,.37.17.37.38s-.17.38-.37.38Z"/>
        <path class="cls-2" d="m280.47,54.2h-17.1c-.21,0-.37-.17-.37-.38s.17-.38.37-.38h17.1c.21,0,.37.17.37.38s-.17.38-.37.38Z"/>
      </g>
      <g>
        <path class="cls-2" d="m264.02,63.09h-.66c-.21,0-.37-.17-.37-.38s.17-.38.37-.38h.66c.21,0,.37.17.37.38s-.17.38-.37.38Z"/>
        <path class="cls-2" d="m265.77,63.09h-.66c-.21,0-.37-.17-.37-.38s.17-.38.37-.38h.66c.21,0,.37.17.37.38s-.17.38-.37.38Z"/>
        <path class="cls-2" d="m267.52,63.09h-.67c-.21,0-.38-.17-.38-.38s.17-.38.38-.38h.67c.21,0,.38.17.38.38s-.17.38-.38.38Z"/>
        <path class="cls-2" d="m269.27,63.09h-.67c-.21,0-.38-.17-.38-.38s.17-.38.38-.38h.67c.21,0,.37.17.37.38s-.17.38-.37.38Z"/>
        <path class="cls-2" d="m287.93,63.08h-17.1c-.21,0-.37-.17-.37-.38s.17-.38.37-.38h17.1c.21,0,.37.17.37.38s-.17.38-.37.38Z"/>
      </g>
      <g>
        <path class="cls-2" d="m287.93,71.87h-.67c-.21,0-.37-.17-.37-.38s.17-.38.37-.38h.67c.21,0,.37.17.37.38s-.17.38-.37.38Z"/>
        <path class="cls-2" d="m286.18,71.87h-.67c-.21,0-.38-.17-.38-.38s.17-.38.38-.38h.67c.21,0,.37.17.37.38s-.17.38-.37.38Z"/>
        <path class="cls-2" d="m284.44,71.87h-.66c-.21,0-.38-.17-.38-.38s.17-.38.38-.38h.66c.21,0,.38.17.38.38s-.17.38-.38.38Z"/>
        <path class="cls-2" d="m282.69,71.87h-.66c-.21,0-.37-.17-.37-.38s.17-.38.37-.38h.66c.21,0,.37.17.37.38s-.17.38-.37.38Z"/>
        <path class="cls-2" d="m280.47,71.87h-17.1c-.21,0-.37-.17-.37-.38s.17-.38.37-.38h17.1c.21,0,.37.17.37.38s-.17.38-.37.38Z"/>
      </g>
    </g>
  </g>
  <g>
    <path class="cls-2" d="m377.27,68.44h-1.21c-.21,0-.37-.17-.37-.38v-1.22c0-.21.17-.38.37-.38h1.21c.21,0,.37.17.37.38v1.22c0,.21-.17.38-.37.38Zm-.84-.75h.46v-.47h-.46v.47Z"/>
    <path class="cls-2" d="m386.04,68.44h-1.22c-.21,0-.37-.17-.37-.38v-1.22c0-.21.17-.38.37-.38h1.22c.21,0,.37.17.37.38v1.22c0,.21-.17.38-.37.38Zm-.84-.75h.47v-.47h-.47v.47Z"/>
    <path class="cls-2" d="m377.27,54.75h-1.21c-.21,0-.37-.17-.37-.38v-1.21c0-.21.17-.38.37-.38h1.21c.21,0,.37.17.37.38v1.21c0,.21-.17.38-.37.38Zm-.84-.75h.46v-.46h-.46v.46Z"/>
    <path class="cls-2" d="m386.04,54.75h-1.22c-.21,0-.37-.17-.37-.38v-1.21c0-.21.17-.38.37-.38h1.22c.21,0,.37.17.37.38v1.21c0,.21-.17.38-.37.38Zm-.84-.75h.47v-.46h-.47v.46Z"/>
    <path class="cls-2" d="m377.27,41.05h-1.21c-.21,0-.37-.17-.37-.38v-1.22c0-.21.17-.38.37-.38h1.21c.21,0,.37.17.37.38v1.22c0,.21-.17.38-.37.38Zm-.84-.75h.46v-.47h-.46v.47Z"/>
    <path class="cls-2" d="m386.04,41.05h-1.22c-.21,0-.37-.17-.37-.38v-1.22c0-.21.17-.38.37-.38h1.22c.21,0,.37.17.37.38v1.22c0,.21-.17.38-.37.38Zm-.84-.75h.47v-.47h-.47v.47Z"/>
    <path class="cls-2" d="m400.69,24.7c-.21,0-.37-.17-.37-.38v-9.12c0-.21.17-.38.37-.38s.37.17.37.38v9.12c0,.21-.17.38-.37.38Z"/>
    <path class="cls-2" d="m380.88,22.21c-11.32,0-20.18-3.08-20.18-7.01s8.87-7.01,20.18-7.01,20.18,3.08,20.18,7.01-8.87,7.01-20.18,7.01Zm0-13.26c-10.53,0-19.43,2.87-19.43,6.26s8.9,6.26,19.43,6.26,19.43-2.86,19.43-6.26-8.9-6.26-19.43-6.26Z"/>
    <ellipse class="cls-3" cx="380.88" cy="15.2" rx="12.1" ry="3.15"/>
    <path class="cls-2" d="m377.27,27.36h-1.21c-.21,0-.37-.17-.37-.38v-1.22c0-.21.17-.38.37-.38h1.21c.21,0,.37.17.37.38v1.22c0,.21-.17.38-.37.38Zm-.84-.75h.46v-.47h-.46v.47Z"/>
    <path class="cls-2" d="m386.04,27.36h-1.22c-.21,0-.37-.17-.37-.38v-1.22c0-.21.17-.38.37-.38h1.22c.21,0,.37.17.37.38v1.22c0,.21-.17.38-.37.38Zm-.84-.75h.47v-.47h-.47v.47Z"/>
    <rect class="cls-3" x="379.1" y="65.68" width="3.56" height="3.56" rx=".37" ry=".37"/>
    <rect class="cls-1" x="379.1" y="51.98" width="3.56" height="3.56" rx=".37" ry=".37"/>
    <rect class="cls-3" x="379.1" y="38.29" width="3.56" height="3.56" rx=".37" ry=".37"/>
    <rect class="cls-1" x="379.1" y="24.59" width="3.56" height="3.56" rx=".37" ry=".37"/>
    <path class="cls-2" d="m361.07,24.7c-.21,0-.37-.17-.37-.38v-9.12c0-.21.17-.38.37-.38s.37.17.37.38v9.12c0,.21-.17.38-.37.38Z"/>
    <path class="cls-2" d="m400.69,38.56c-.21,0-.37-.17-.37-.38v-9.12c0-.21.17-.38.37-.38s.37.17.37.38v9.12c0,.21-.17.38-.37.38Z"/>
    <path class="cls-2" d="m361.07,38.56c-.21,0-.37-.17-.37-.38v-9.12c0-.21.17-.38.37-.38s.37.17.37.38v9.12c0,.21-.17.38-.37.38Z"/>
    <path class="cls-2" d="m400.69,52.41c-.21,0-.37-.17-.37-.38v-9.12c0-.21.17-.38.37-.38s.37.17.37.38v9.12c0,.21-.17.38-.37.38Z"/>
    <path class="cls-2" d="m361.07,52.41c-.21,0-.37-.17-.37-.38v-9.12c0-.21.17-.38.37-.38s.37.17.37.38v9.12c0,.21-.17.38-.37.38Z"/>
    <path class="cls-2" d="m400.69,66.26c-.21,0-.37-.17-.37-.38v-9.12c0-.21.17-.38.37-.38s.37.17.37.38v9.12c0,.21-.17.38-.37.38Z"/>
    <path class="cls-2" d="m361.07,66.26c-.21,0-.37-.17-.37-.38v-9.12c0-.21.17-.38.37-.38s.37.17.37.38v9.12c0,.21-.17.38-.37.38Z"/>
    <path class="cls-2" d="m380.88,31.33c-11.32,0-20.18-3.08-20.18-7.01,0-.21.17-.38.37-.38s.37.17.37.38c0,3.39,8.9,6.26,19.43,6.26s19.43-2.86,19.43-6.26c0-.21.17-.38.37-.38s.37.17.37.38c0,3.93-8.87,7.01-20.18,7.01Z"/>
    <path class="cls-2" d="m380.88,45.16c-11.32,0-20.18-3.08-20.18-7.01,0-.21.17-.38.37-.38s.37.17.37.38c0,3.39,8.9,6.26,19.43,6.26s19.43-2.87,19.43-6.26c0-.21.17-.38.37-.38s.37.17.37.38c0,3.93-8.87,7.01-20.18,7.01Z"/>
    <path class="cls-2" d="m380.88,58.99c-11.32,0-20.18-3.08-20.18-7.01,0-.21.17-.38.37-.38s.37.17.37.38c0,3.39,8.9,6.26,19.43,6.26s19.43-2.87,19.43-6.26c0-.21.17-.38.37-.38s.37.17.37.38c0,3.93-8.87,7.01-20.18,7.01Z"/>
    <path class="cls-2" d="m380.88,72.82c-11.32,0-20.18-3.08-20.18-7.01,0-.21.17-.38.37-.38s.37.17.37.38c0,3.39,8.9,6.26,19.43,6.26s19.43-2.86,19.43-6.26c0-.21.17-.38.37-.38s.37.17.37.38c0,3.93-8.87,7.01-20.18,7.01Z"/>
    <path class="cls-2" d="m380.88,35.9c-11.32,0-20.18-3.08-20.18-7.01,0-.9.45-1.76,1.33-2.56.15-.14.39-.13.53.02.14.15.13.39-.02.53-.72.66-1.09,1.33-1.09,2.01,0,3.39,8.9,6.26,19.43,6.26s19.43-2.86,19.43-6.26c0-.68-.37-1.35-1.08-2.01-.15-.14-.16-.38-.02-.53.14-.15.38-.16.53-.02.88.8,1.33,1.67,1.33,2.56,0,3.93-8.87,7.01-20.18,7.01Z"/>
    <path class="cls-2" d="m380.88,49.92c-11.32,0-20.18-3.08-20.18-7.01,0-.9.45-1.76,1.33-2.56.15-.14.39-.13.53.02.14.15.13.39-.02.53-.72.66-1.09,1.33-1.09,2.01,0,3.39,8.9,6.26,19.43,6.26s19.43-2.87,19.43-6.26c0-.68-.37-1.35-1.08-2.01-.15-.14-.16-.38-.02-.53.14-.15.38-.16.53-.02.88.8,1.33,1.67,1.33,2.56,0,3.93-8.87,7.01-20.18,7.01Z"/>
    <path class="cls-2" d="m380.88,63.93c-11.32,0-20.18-3.08-20.18-7.01,0-.9.45-1.76,1.33-2.56.15-.14.39-.13.53.02.14.15.13.39-.02.53-.72.66-1.09,1.33-1.09,2.01,0,3.39,8.9,6.26,19.43,6.26s19.43-2.86,19.43-6.26c0-.68-.37-1.35-1.08-2.01-.15-.14-.16-.38-.02-.53.14-.15.38-.16.53-.02.88.8,1.33,1.67,1.33,2.56,0,3.93-8.87,7.01-20.18,7.01Z"/>
  </g>
  <g>
    <g>
      <path class="cls-2" d="m61.16,63.06h-12.3c-.83,0-1.5-.67-1.5-1.5v-11.44c0-.83.67-1.5,1.5-1.5h3.14c.35,0,.69.12.96.35l1.97,1.65h0c.13.11.3.17.48.17h5.74c.83,0,1.5.67,1.5,1.5v9.27c0,.83-.67,1.5-1.5,1.5Zm-12.3-13.69c-.41,0-.75.34-.75.75v11.44c0,.41.34.75.75.75h12.3c.41,0,.75-.34.75-.75v-9.27c0-.41-.34-.75-.75-.75h-5.74c-.35,0-.69-.12-.96-.35l-1.97-1.65c-.14-.11-.31-.17-.48-.17h-3.14Z"/>
      <path class="cls-2" d="m62.29,60.26h-14.55c-.21,0-.37-.17-.37-.38s.17-.38.37-.38h14.55c.21,0,.38.17.38.38s-.17.38-.38.38Z"/>
    </g>
    <g>
      <g>
        <path class="cls-2" d="m31.33,44.86c-.21,0-.37-.17-.37-.38v-4.37c0-.21.17-.38.37-.38s.37.17.37.38v4.37c0,.21-.17.38-.37.38Z"/>
        <path class="cls-2" d="m31.33,47.18c-.84,0-1.53-.69-1.53-1.53s.69-1.53,1.53-1.53,1.53.69,1.53,1.53-.69,1.53-1.53,1.53Zm0-2.32c-.43,0-.78.35-.78.78s.35.78.78.78.78-.35.78-.78-.35-.78-.78-.78Z"/>
        <path class="cls-2" d="m7.65,47.18c-.85,0-1.53-.69-1.53-1.53s.69-1.53,1.53-1.53,1.53.69,1.53,1.53-.69,1.53-1.53,1.53Zm0-2.32c-.43,0-.78.35-.78.78s.35.78.78.78.78-.35.78-.78-.35-.78-.78-.78Z"/>
        <path class="cls-2" d="m55.01,47.18c-.85,0-1.53-.69-1.53-1.53s.69-1.53,1.53-1.53,1.53.69,1.53,1.53-.69,1.53-1.53,1.53Zm0-2.32c-.43,0-.78.35-.78.78s.35.78.78.78.78-.35.78-.78-.35-.78-.78-.78Z"/>
      </g>
      <path class="cls-2" d="m30.17,46.02H8.81c-.21,0-.37-.17-.37-.38s.17-.38.37-.38h21.37c.21,0,.37.17.37.38s-.17.38-.37.38Z"/>
      <path class="cls-2" d="m53.85,46.02h-21.37c-.21,0-.37-.17-.37-.38s.17-.38.37-.38h21.37c.21,0,.37.17.37.38s-.17.38-.37.38Z"/>
      <g>
        <path class="cls-3" d="m45.2,12.6h-12.95c-.68,0-1.35-.24-1.87-.68l-4.45-3.72c-.39-.33-.88-.5-1.39-.5h-7.08c-1.19,0-2.16.97-2.16,2.16v25.81c0,1.19.97,2.16,2.16,2.16h27.74c1.19,0,2.16-.97,2.16-2.16V14.76c0-1.19-.97-2.16-2.16-2.16Z"/>
        <g>
          <path class="cls-2" d="m38.61,31.05h-14.55c-.21,0-.37-.17-.37-.38v-12.04c0-.1.04-.19.1-.26l2.4-2.51c.07-.07.17-.12.27-.12h12.15c.21,0,.37.17.37.38v14.55c0,.21-.17.38-.37.38Zm-14.17-.75h13.8v-13.8h-11.62l-2.18,2.29v11.51Z"/>
          <path class="cls-2" d="m24.06,19.01c-.15,0-.28-.09-.34-.23-.06-.14-.03-.3.07-.41l2.4-2.51c.11-.11.27-.15.41-.09.14.06.24.19.24.35v2.49c0,.21-.17.37-.37.38l-2.4.02h0Zm2.02-1.95l-1.14,1.19h1.14v-1.19Z"/>
          <path class="cls-2" d="m37.02,17.76h-8.66c-.21,0-.37-.17-.37-.38s.17-.38.37-.38h8.66c.21,0,.37.17.37.38s-.17.38-.37.38Z"/>
          <path class="cls-2" d="m37.02,19.43h-8.66c-.21,0-.37-.17-.37-.38s.17-.38.37-.38h8.66c.21,0,.37.17.37.38s-.17.38-.37.38Z"/>
          <path class="cls-2" d="m37.02,21.09h-11.26c-.21,0-.37-.17-.37-.38s.17-.38.37-.38h11.26c.21,0,.37.17.37.38s-.17.38-.37.38Z"/>
          <path class="cls-2" d="m37.02,22.76h-11.26c-.21,0-.37-.17-.37-.38s.17-.38.37-.38h11.26c.21,0,.37.17.37.38s-.17.38-.37.38Z"/>
          <path class="cls-2" d="m37.02,24.43h-11.26c-.21,0-.37-.17-.37-.38s.17-.38.37-.38h11.26c.21,0,.37.17.37.38s-.17.38-.37.38Z"/>
          <path class="cls-2" d="m37.02,26.1h-11.26c-.21,0-.37-.17-.37-.38s.17-.38.37-.38h11.26c.21,0,.37.17.37.38s-.17.38-.37.38Z"/>
          <path class="cls-2" d="m37.02,27.77h-11.26c-.21,0-.37-.17-.37-.38s.17-.38.37-.38h11.26c.21,0,.37.17.37.38s-.17.38-.37.38Z"/>
          <path class="cls-2" d="m37.02,29.43h-11.26c-.21,0-.37-.17-.37-.38s.17-.38.37-.38h11.26c.21,0,.37.17.37.38s-.17.38-.37.38Z"/>
        </g>
        <path class="cls-2" d="m47.74,33.91H14.92c-.21,0-.37-.17-.37-.38s.17-.38.37-.38h32.81c.21,0,.37.17.37.38s-.17.38-.37.38Z"/>
      </g>
      <g>
        <path class="cls-2" d="m13.8,63.06H1.5c-.83,0-1.5-.67-1.5-1.5v-11.44c0-.83.67-1.5,1.5-1.5h3.14c.35,0,.69.12.96.35l1.97,1.65h0c.13.11.3.17.48.17h5.74c.83,0,1.5.67,1.5,1.5v9.27c0,.83-.67,1.5-1.5,1.5ZM1.5,49.37c-.41,0-.75.34-.75.75v11.44c0,.41.34.75.75.75h12.3c.41,0,.75-.34.75-.75v-9.27c0-.41-.34-.75-.75-.75h-5.74c-.35,0-.69-.12-.96-.35l-1.97-1.65c-.14-.11-.31-.17-.48-.17H1.5Z"/>
        <path class="cls-2" d="m14.92,60.26H.37c-.21,0-.37-.17-.37-.38s.17-.38.37-.38h14.55c.21,0,.37.17.37.38s-.17.38-.37.38Z"/>
      </g>
      <g>
        <path class="cls-2" d="m37.48,63.06h-12.3c-.83,0-1.5-.67-1.5-1.5v-11.44c0-.83.67-1.5,1.5-1.5h3.14c.35,0,.69.12.96.35l1.97,1.65c.14.11.31.18.48.18h5.74c.83,0,1.5.67,1.5,1.5v9.27c0,.83-.67,1.5-1.5,1.5Zm-12.3-13.69c-.41,0-.75.34-.75.75v11.44c0,.41.34.75.75.75h12.3c.41,0,.75-.34.75-.75v-9.27c0-.41-.34-.75-.75-.75h-5.74c-.35,0-.69-.12-.96-.35h0s-1.97-1.65-1.97-1.65c-.13-.11-.31-.17-.48-.17h-3.14Z"/>
        <path class="cls-2" d="m38.61,60.26h-14.55c-.21,0-.37-.17-.37-.38s.17-.38.37-.38h14.55c.21,0,.37.17.37.38s-.17.38-.37.38Z"/>
      </g>
    </g>
  </g>
  <g>
    <path class="cls-2" d="m463.01,37.77h-21.36c-.21,0-.37-.17-.37-.38s.17-.38.37-.38h21.36c.21,0,.37.17.37.38s-.17.38-.37.38Z"/>
    <path class="cls-2" d="m486.69,37.77h-21.36c-.21,0-.37-.17-.37-.38s.17-.38.37-.38h21.36c.21,0,.37.17.37.38s-.17.38-.37.38Z"/>
    <g>
      <path class="cls-2" d="m464.17,36.61c-.21,0-.37-.17-.37-.38v-4.37c0-.21.17-.38.37-.38s.37.17.37.38v4.37c0,.21-.17.38-.37.38Z"/>
      <path class="cls-2" d="m465.33,38.93h-2.32c-.21,0-.37-.17-.37-.38v-2.32c0-.21.17-.38.37-.38h2.32c.21,0,.37.17.37.38v2.32c0,.21-.17.38-.37.38Zm-1.94-.75h1.57v-1.57h-1.57v1.57Z"/>
      <path class="cls-2" d="m441.64,38.93h-2.32c-.21,0-.37-.17-.37-.38v-2.32c0-.21.17-.38.37-.38h2.32c.21,0,.37.17.37.38v2.32c0,.21-.17.38-.37.38Zm-1.94-.75h1.57v-1.57h-1.57v1.57Z"/>
      <path class="cls-2" d="m489.01,38.93h-2.32c-.21,0-.37-.17-.37-.38v-2.32c0-.21.17-.38.37-.38h2.32c.21,0,.37.17.37.38v2.32c0,.21-.17.38-.37.38Zm-1.94-.75h1.57v-1.57h-1.57v1.57Z"/>
    </g>
    <g>
      <path class="cls-2" d="m474.02,71.09h-19.58c-.21,0-.37-.17-.37-.38v-30.45c0-.21.17-.38.37-.38h19.58c.21,0,.37.17.37.38v30.45c0,.21-.17.38-.37.38Zm-19.2-.75h18.83v-29.7h-18.83v29.7Z"/>
      <path class="cls-2" d="m472.12,45.91h-15.91c-.21,0-.37-.17-.37-.38v-3c0-.21.17-.38.37-.38h15.91c.21,0,.37.17.37.38v3c0,.21-.17.38-.37.38Zm-15.53-.75h15.16v-2.25h-15.16v2.25Z"/>
      <path class="cls-2" d="m472.12,50.96h-15.91c-.21,0-.37-.17-.37-.38v-3c0-.21.17-.38.37-.38h15.91c.21,0,.37.17.37.38v3c0,.21-.17.38-.37.38Zm-15.53-.75h15.16v-2.25h-15.16v2.25Z"/>
      <path class="cls-2" d="m464.17,65.97c-1.46,0-2.65-1.19-2.65-2.65s1.19-2.65,2.65-2.65,2.65,1.19,2.65,2.65-1.19,2.65-2.65,2.65Zm0-4.55c-1.05,0-1.9.85-1.9,1.9s.85,1.9,1.9,1.9,1.9-.85,1.9-1.9-.85-1.9-1.9-1.9Z"/>
      <path class="cls-2" d="m458.49,65.3c-1.09,0-1.98-.89-1.98-1.98s.89-1.98,1.98-1.98,1.98.89,1.98,1.98-.89,1.98-1.98,1.98Zm0-3.22c-.68,0-1.23.55-1.23,1.23s.55,1.23,1.23,1.23,1.23-.55,1.23-1.23-.55-1.23-1.23-1.23Z"/>
      <path class="cls-2" d="m469.84,65.3c-1.09,0-1.98-.89-1.98-1.98s.89-1.98,1.98-1.98,1.98.89,1.98,1.98-.89,1.98-1.98,1.98Zm0-3.22c-.68,0-1.23.55-1.23,1.23s.55,1.23,1.23,1.23,1.23-.55,1.23-1.23-.55-1.23-1.23-1.23Z"/>
      <path class="cls-2" d="m474.02,56.91h-19.58c-.21,0-.37-.17-.37-.38v-2.11c0-.21.17-.38.37-.38h19.58c.21,0,.37.17.37.38v2.11c0,.21-.17.38-.37.38Zm-19.2-.75h18.83v-1.36h-18.83v1.36Z"/>
    </g>
    <g>
      <path class="cls-3" d="m479.27,16.99h-1.02c-.32-3.68-3.19-6.7-6.85-7.2-1.51-5.35-6.4-9.06-11.99-9.06-6.87,0-12.45,5.59-12.45,12.45,0,1.36.22,2.69.65,3.97-3.12.68-5.42,3.5-5.42,6.73,0,3.8,3.09,6.89,6.89,6.89h30.2c3.8,0,6.89-3.09,6.89-6.89s-3.09-6.89-6.89-6.89Z"/>
      <path class="cls-2" d="m468.42,25.99h-12.8c-.85,0-1.55-.69-1.55-1.55v-11.91c0-.85.69-1.55,1.55-1.55h3.27c.36,0,.71.13.99.36l2.06,1.72c.14.12.32.19.51.19h5.98c.85,0,1.55.69,1.55,1.55v9.65c0,.85-.69,1.55-1.55,1.55Zm-12.8-14.26c-.44,0-.8.36-.8.8v11.91c0,.44.36.8.8.8h12.8c.44,0,.8-.36.8-.8v-9.65c0-.44-.36-.8-.8-.8h-5.98c-.36,0-.71-.13-.99-.36h0l-2.06-1.72c-.14-.12-.32-.19-.51-.19h-3.27Z"/>
      <path class="cls-2" d="m469.59,22.96h-15.15c-.21,0-.37-.17-.37-.38s.17-.38.37-.38h15.15c.21,0,.37.17.37.38s-.17.38-.37.38Z"/>
    </g>
    <g>
      <path class="cls-2" d="m445.84,67h-14.32c-.21,0-.37-.17-.37-.38v-22.27c0-.21.17-.38.37-.38h14.32c.21,0,.37.17.37.38v22.27c0,.21-.17.38-.37.38Zm-13.94-.75h13.57v-21.52h-13.57v21.52Z"/>
      <path class="cls-2" d="m444.5,48.58h-11.63c-.21,0-.37-.17-.37-.38v-2.19c0-.21.17-.38.37-.38h11.63c.21,0,.37.17.37.38v2.19c0,.21-.17.38-.37.38Zm-11.26-.75h10.88v-1.44h-10.88v1.44Z"/>
      <path class="cls-2" d="m444.5,52.28h-11.63c-.21,0-.37-.17-.37-.38v-2.19c0-.21.17-.38.37-.38h11.63c.21,0,.37.17.37.38v2.19c0,.21-.17.38-.37.38Zm-11.26-.75h10.88v-1.44h-10.88v1.44Z"/>
      <path class="cls-2" d="m438.68,63.25c-1.12,0-2.04-.92-2.04-2.04s.91-2.04,2.04-2.04,2.04.91,2.04,2.04-.92,2.04-2.04,2.04Zm0-3.33c-.71,0-1.29.58-1.29,1.29s.58,1.29,1.29,1.29,1.29-.58,1.29-1.29-.58-1.29-1.29-1.29Z"/>
      <path class="cls-2" d="m434.53,62.76c-.86,0-1.55-.7-1.55-1.55s.7-1.55,1.55-1.55,1.55.7,1.55,1.55-.7,1.55-1.55,1.55Zm0-2.35c-.44,0-.8.36-.8.8s.36.8.8.8.8-.36.8-.8-.36-.8-.8-.8Z"/>
      <path class="cls-2" d="m442.83,62.76c-.86,0-1.55-.7-1.55-1.55s.7-1.55,1.55-1.55,1.55.7,1.55,1.55-.7,1.55-1.55,1.55Zm0-2.35c-.44,0-.8.36-.8.8s.36.8.8.8.8-.36.8-.8-.36-.8-.8-.8Z"/>
      <path class="cls-2" d="m445.84,55.86h-14.32c-.21,0-.37-.17-.37-.38s.17-.38.37-.38h14.32c.21,0,.37.17.37.38s-.17.38-.37.38Z"/>
    </g>
    <g>
      <path class="cls-2" d="m496.94,67h-14.32c-.21,0-.37-.17-.37-.38v-22.27c0-.21.17-.38.37-.38h14.32c.21,0,.37.17.37.38v22.27c0,.21-.17.38-.37.38Zm-13.94-.75h13.57v-21.52h-13.57v21.52Z"/>
      <path class="cls-2" d="m495.5,48.58h-11.63c-.21,0-.37-.17-.37-.38v-2.19c0-.21.17-.38.37-.38h11.63c.21,0,.37.17.37.38v2.19c0,.21-.17.38-.37.38Zm-11.26-.75h10.88v-1.44h-10.88v1.44Z"/>
      <path class="cls-2" d="m495.5,52.28h-11.63c-.21,0-.37-.17-.37-.38v-2.19c0-.21.17-.38.37-.38h11.63c.21,0,.37.17.37.38v2.19c0,.21-.17.38-.37.38Zm-11.26-.75h10.88v-1.44h-10.88v1.44Z"/>
      <path class="cls-2" d="m489.69,63.25c-1.12,0-2.04-.92-2.04-2.04s.92-2.04,2.04-2.04,2.04.91,2.04,2.04-.91,2.04-2.04,2.04Zm0-3.33c-.71,0-1.29.58-1.29,1.29s.58,1.29,1.29,1.29,1.29-.58,1.29-1.29-.58-1.29-1.29-1.29Z"/>
      <path class="cls-2" d="m485.54,62.76c-.86,0-1.55-.7-1.55-1.55s.7-1.55,1.55-1.55,1.55.7,1.55,1.55-.7,1.55-1.55,1.55Zm0-2.35c-.44,0-.8.36-.8.8s.36.8.8.8.8-.36.8-.8-.36-.8-.8-.8Z"/>
      <path class="cls-2" d="m493.84,62.76c-.86,0-1.55-.7-1.55-1.55s.7-1.55,1.55-1.55,1.55.7,1.55,1.55-.7,1.55-1.55,1.55Zm0-2.35c-.44,0-.8.36-.8.8s.36.8.8.8.8-.36.8-.8-.36-.8-.8-.8Z"/>
      <path class="cls-2" d="m496.94,55.86h-14.32c-.21,0-.37-.17-.37-.38s.17-.38.37-.38h14.32c.21,0,.37.17.37.38s-.17.38-.37.38Z"/>
    </g>
  </g>
  <g>
    <g>
      <path class="cls-2" d="m97.83,45.84h-12.67c-1.23,0-2.23-1-2.23-2.23v-19.54c0-1.23,1-2.23,2.23-2.23h12.67c1.23,0,2.23,1,2.23,2.23v19.54c0,1.23-1,2.23-2.23,2.23Zm-12.67-23.25c-.82,0-1.48.67-1.48,1.48v19.54c0,.82.66,1.48,1.48,1.48h12.67c.82,0,1.48-.67,1.48-1.48v-19.54c0-.82-.67-1.48-1.48-1.48h-12.67Z"/>
      <rect class="cls-3" x="85.84" y="26.03" width="11.33" height="15.64"/>
    </g>
    <g>
      <path class="cls-2" d="m159.3,43.01h-7.93c-.81,0-1.46-.65-1.46-1.46v-15.28c0-.8.65-1.46,1.46-1.46h7.93c.8,0,1.46.66,1.46,1.46v15.28c0,.8-.65,1.46-1.46,1.46Zm-7.93-17.45c-.39,0-.71.32-.71.71v15.28c0,.39.32.71.71.71h7.93c.39,0,.71-.32.71-.71v-15.28c0-.39-.32-.71-.71-.71h-7.93Z"/>
      <rect class="cls-1" x="152.14" y="28.34" width="6.4" height="11"/>
    </g>
    <g>
      <g>
        <path class="cls-2" d="m106.67,34.29h-.5c-.21,0-.37-.17-.37-.38s.17-.38.37-.38h.5c.21,0,.37.17.37.38s-.17.38-.37.38Z"/>
        <path class="cls-2" d="m120.71,34.29h-.94c-.21,0-.37-.17-.37-.38s.17-.38.37-.38h.94c.21,0,.37.17.37.38s-.17.38-.37.38Zm-2.81,0h-.94c-.21,0-.37-.17-.37-.38s.17-.38.37-.38h.94c.21,0,.37.17.37.38s-.17.38-.37.38Zm-2.81,0h-.94c-.21,0-.37-.17-.37-.38s.17-.38.37-.38h.94c.21,0,.37.17.37.38s-.17.38-.37.38Zm-2.81,0h-.94c-.21,0-.37-.17-.37-.38s.17-.38.37-.38h.94c.21,0,.37.17.37.38s-.17.38-.37.38Zm-2.81,0h-.94c-.21,0-.37-.17-.37-.38s.17-.38.37-.38h.94c.21,0,.37.17.37.38s-.17.38-.37.38Z"/>
        <path class="cls-2" d="m123.08,34.29h-.5c-.21,0-.37-.17-.37-.38s.17-.38.37-.38h.5c.21,0,.37.17.37.38s-.17.38-.37.38Z"/>
      </g>
      <path class="cls-2" d="m124.86,36.06c-1.19,0-2.15-.96-2.15-2.15s.96-2.15,2.15-2.15,2.15.96,2.15,2.15-.96,2.15-2.15,2.15Zm0-3.55c-.77,0-1.4.63-1.4,1.4s.63,1.4,1.4,1.4,1.4-.63,1.4-1.4-.63-1.4-1.4-1.4Z"/>
      <path class="cls-2" d="m105.08,35.38c-.81,0-1.46-.66-1.46-1.46s.66-1.46,1.46-1.46,1.46.66,1.46,1.46-.66,1.46-1.46,1.46Zm0-2.18c-.39,0-.71.32-.71.71s.32.71.71.71.71-.32.71-.71-.32-.71-.71-.71Z"/>
      <path class="cls-2" d="m144.45,35.38c-.81,0-1.46-.66-1.46-1.46s.66-1.46,1.46-1.46,1.46.66,1.46,1.46-.66,1.46-1.46,1.46Zm0-2.18c-.39,0-.71.32-.71.71s.32.71.71.71.71-.32.71-.71-.32-.71-.71-.71Z"/>
      <g>
        <path class="cls-2" d="m127.44,34.29h-.5c-.21,0-.37-.17-.37-.38s.17-.38.37-.38h.5c.21,0,.37.17.37.38s-.17.38-.37.38Z"/>
        <path class="cls-2" d="m140.65,34.29h-1.1c-.21,0-.37-.17-.37-.38s.17-.38.37-.38h1.1c.21,0,.37.17.37.38s-.17.38-.37.38Zm-3.3,0h-1.1c-.21,0-.37-.17-.37-.38s.17-.38.37-.38h1.1c.21,0,.38.17.38.38s-.17.38-.38.38Zm-3.3,0h-1.1c-.21,0-.37-.17-.37-.38s.17-.38.37-.38h1.1c.21,0,.37.17.37.38s-.17.38-.37.38Zm-3.3,0h-1.1c-.21,0-.37-.17-.37-.38s.17-.38.37-.38h1.1c.21,0,.37.17.37.38s-.17.38-.37.38Z"/>
        <path class="cls-2" d="m143.36,34.29h-.5c-.21,0-.37-.17-.37-.38s.17-.38.37-.38h.5c.21,0,.37.17.37.38s-.17.38-.37.38Z"/>
      </g>
      <path class="cls-2" d="m124.86,37.06c-.21,0-.37-.17-.37-.38v-1c0-.21.17-.38.37-.38s.37.17.37.38v1c0,.21-.17.38-.37.38Z"/>
      <path class="cls-2" d="m124.86,31.57c-.21,0-.37-.17-.37-.38v-1c0-.21.17-.38.37-.38s.37.17.37.38v1c0,.21-.17.38-.37.38Z"/>
      <path class="cls-2" d="m103.99,34.29h-1c-.21,0-.38-.17-.38-.38s.17-.38.38-.38h1c.21,0,.38.17.38.38s-.17.38-.38.38Z"/>
      <path class="cls-2" d="m146.54,34.29h-1c-.21,0-.37-.17-.37-.38s.17-.38.37-.38h1c.21,0,.37.17.37.38s-.17.38-.37.38Z"/>
    </g>
    <g>
      <path class="cls-2" d="m142.58,66.8h-35.63c-1.55,0-2.81-1.26-2.81-2.81v-22.64c0-1.55,1.26-2.81,2.81-2.81h35.63c1.55,0,2.81,1.26,2.81,2.81v22.64c0,1.55-1.26,2.81-2.81,2.81Zm-35.63-27.51c-1.14,0-2.06.92-2.06,2.06v22.64c0,1.13.92,2.06,2.06,2.06h35.63c1.14,0,2.06-.92,2.06-2.06v-22.64c0-1.13-.92-2.06-2.06-2.06h-35.63Z"/>
      <path class="cls-2" d="m142.92,64.74h-36.3c-.21,0-.37-.17-.37-.38v-23.4c0-.21.17-.38.37-.38h36.3c.21,0,.37.17.37.38v23.4c0,.21-.17.38-.37.38Zm-35.93-.75h35.55v-22.65h-35.55v22.65Z"/>
      <path class="cls-2" d="m141.18,63.25h-32.84c-.21,0-.38-.17-.38-.38v-20.42c0-.21.17-.38.38-.38h32.84c.21,0,.37.17.37.38v20.42c0,.21-.17.38-.37.38Zm-32.46-.75h32.09v-19.67h-32.09v19.67Z"/>
      <polygon class="cls-1" points="119.61 68.01 117.33 72.99 132.2 72.99 129.92 68.01 119.61 68.01"/>
      <g>
        <path class="cls-3" d="m130.91,48.37h-5.74c-.35,0-.69-.12-.96-.35h0l-1.97-1.65c-.13-.11-.31-.17-.48-.17h-3.14c-.41,0-.75.34-.75.75v11.44c0,.41.34.75.75.75h12.3c.41,0,.75-.34.75-.75v-9.27c0-.41-.34-.75-.75-.75Z"/>
        <path class="cls-2" d="m132.04,57.83h-14.55c-.21,0-.37-.17-.37-.38s.17-.38.37-.38h14.55c.21,0,.37.17.37.38s-.17.38-.37.38Z"/>
      </g>
      <path class="cls-2" d="m135.35,73.74h-20.88c-.21,0-.38-.17-.38-.38s.17-.38.38-.38h20.88c.21,0,.38.17.38.38s-.17.38-.38.38Z"/>
    </g>
    <path class="cls-1" d="m109.67,28.54h30.2c3.38,0,6.14-2.75,6.14-6.14s-2.75-6.14-6.14-6.14h-1.37c-.2,0-.37-.16-.37-.36-.14-3.56-2.92-6.51-6.46-6.88-.16-.02-.29-.13-.32-.28-1.34-5.15-6-8.75-11.33-8.75-6.45,0-11.7,5.25-11.7,11.7,0,1.42.25,2.8.75,4.13.04.11.03.22-.03.32-.06.1-.16.17-.27.18-2.98.45-5.23,3.06-5.23,6.07,0,3.38,2.75,6.14,6.14,6.14Z"/>
  </g>
</svg>