<?xml version="1.0" encoding="UTF-8"?>
<svg id="Layer_1" data-name="Layer 1" xmlns="http://www.w3.org/2000/svg" viewBox="0 0 91.95 69.01">
  <defs>
    <style>
      .cls-1 {
        fill: #00d9b5;
      }
    </style>
  </defs>
  <path class="cls-1" d="m70.12,69.01c-1.76,0-3.26-1.33-3.44-3.12-.19-1.9,1.19-3.59,3.08-3.78.11-.01,4.88-.6,7.13-3.85,1.35-1.95,1.6-4.68.73-8.1-1.58-6.23-1.02-11.15,1.69-14.63.29-.37.58-.7.89-1.01-.31-.31-.61-.65-.89-1.01-2.7-3.48-3.27-8.4-1.69-14.63.87-3.44.62-6.18-.75-8.13-2.28-3.25-7.04-3.81-7.09-3.82-1.9-.19-3.29-1.88-3.1-3.79s1.88-3.29,3.79-3.1c.32.03,7.95.85,12.07,6.73,2.58,3.68,3.18,8.33,1.79,13.81-1.02,4-.86,7,.44,8.68,1.32,1.7,3.7,1.8,3.72,1.8,1.91,0,3.46,1.55,3.46,3.46s-1.53,3.44-3.42,3.46c-.12,0-2.49.12-3.79,1.84-1.28,1.69-1.42,4.67-.41,8.64,1.39,5.48.79,10.13-1.79,13.81-4.12,5.88-11.75,6.7-12.07,6.73-.12.01-.23.02-.35.02Zm18.37-31.04h0,0Z"/>
  <path class="cls-1" d="m21.84,69.01c-.11,0-.23,0-.35-.02-.32-.03-7.95-.85-12.07-6.73-2.58-3.68-3.18-8.33-1.79-13.81,1.01-3.96.86-6.95-.41-8.64-1.31-1.72-3.67-1.84-3.79-1.84-1.89-.02-3.42-1.56-3.42-3.46s1.53-3.44,3.42-3.46c.12,0,2.49-.12,3.79-1.84,1.28-1.69,1.42-4.67.41-8.64-1.39-5.48-.79-10.13,1.79-13.81C13.54.87,21.16.05,21.49.02c1.9-.19,3.6,1.2,3.79,3.1.19,1.9-1.19,3.59-3.08,3.78-.11.01-4.88.6-7.13,3.85-1.35,1.95-1.6,4.68-.73,8.1,1.58,6.23,1.02,11.15-1.69,14.63-.29.37-.58.7-.89,1.01.31.31.61.65.89,1.01,2.7,3.48,3.27,8.4,1.69,14.63-.87,3.42-.63,6.15.73,8.1,2.27,3.27,7.08,3.84,7.13,3.85,1.9.19,3.28,1.88,3.09,3.79-.18,1.79-1.69,3.12-3.45,3.12ZM3.46,37.96h0,0Z"/>
  <path class="cls-1" d="m68.66,24.02H26.59c-1.91,0-3.46-1.55-3.46-3.46s1.55-3.46,3.46-3.46h42.06c1.91,0,3.46,1.55,3.46,3.46s-1.55,3.46-3.46,3.46Z"/>
  <path class="cls-1" d="m35.66,39.11h-9.07c-1.91,0-3.46-1.55-3.46-3.46s1.55-3.46,3.46-3.46h9.07c1.91,0,3.46,1.55,3.46,3.46s-1.55,3.46-3.46,3.46Z"/>
  <path class="cls-1" d="m68.66,39.11h-21.87c-1.91,0-3.46-1.55-3.46-3.46s1.55-3.46,3.46-3.46h21.87c1.91,0,3.46,1.55,3.46,3.46s-1.55,3.46-3.46,3.46Z"/>
  <path class="cls-1" d="m48.16,54.19h-21.56c-1.91,0-3.46-1.55-3.46-3.46s1.55-3.46,3.46-3.46h21.56c1.91,0,3.46,1.55,3.46,3.46s-1.55,3.46-3.46,3.46Z"/>
</svg>