<?xml version="1.0" encoding="UTF-8"?>
<svg id="Objects" xmlns="http://www.w3.org/2000/svg" viewBox="0 0 181.39 147.8">
  <defs>
    <style>
      .cls-1 {
        fill: #272425;
      }
    </style>
  </defs>
  <rect class="cls-1" x="172.98" y="43.21" width="8.42" height="17.23"/>
  <polygon class="cls-1" points="114.97 113.09 90.4 113.09 90.4 121.83 114.97 121.83 114.97 130.33 123.38 130.33 123.38 121.83 123.38 113.09 114.97 113.09"/>
  <rect class="cls-1" x="24.59" y="130.33" width="24.74" height="8.73"/>
  <rect class="cls-1" x="58.39" y="17.47" width="17.22" height="8.74"/>
  <rect class="cls-1" x="41.06" y="25.73" width="17.23" height="8.74"/>
  <rect class="cls-1" x="23.84" y="34.47" width="17.22" height="8.74"/>
  <polygon class="cls-1" points="23.84 43.21 8.05 43.21 0 43.21 0 51.95 0 130.33 .76 130.33 8.05 130.33 24.59 130.33 24.59 121.59 8.05 121.59 8.05 51.95 23.84 51.95 23.84 43.21"/>
  <polygon class="cls-1" points="172.98 60.44 98.13 60.44 98.13 69.17 132.03 69.17 132.03 87.36 140.45 87.36 140.45 69.17 172.98 69.17 172.98 60.44"/>
  <rect class="cls-1" x="49.34" y="139.06" width="57.21" height="8.74"/>
  <polygon class="cls-1" points="123.38 87.36 99.04 87.36 99.04 96.09 123.38 96.09 123.38 113.09 131.8 113.09 131.8 96.09 131.8 87.36 123.38 87.36"/>
  <polygon class="cls-1" points="64.08 43.21 172.98 43.21 172.98 34.47 100.41 34.47 100.41 25.73 108.37 25.73 108.37 8.74 108.37 0 99.95 0 84.03 0 84.03 8.74 99.95 8.74 99.95 25.73 91.99 25.73 91.99 34.47 64.08 34.47 64.08 43.21"/>
  <rect class="cls-1" x="106.55" y="130.33" width="8.42" height="8.73"/>
  <rect class="cls-1" x="75.61" y="8.74" width="8.42" height="8.74"/>
</svg>